<svg xmlns="http://www.w3.org/2000/svg" width="98" height="72" fill="none" viewBox="0 0 98 72"><path fill="#E08438" d="M44.862 3c.775.214 1.431.696 2.125 1.08C55.327 8.854 63.662 13.635 72 18.411c1.807 1.067 3.672 2.041 5.443 3.166-1.044.168-2.105.128-3.159.115-4.239-.005-8.476.004-12.715-.005-2.895-1.62-5.742-3.325-8.647-4.924-.767-.988-1.3-2.13-1.953-3.19-1.993-3.46-4.052-6.884-6.007-10.365l-.1-.208Z"/><path fill="#EDB44A" d="M44.961 3.208c1.955 3.482 4.014 6.906 6.007 10.366.654 1.06 1.186 2.202 1.952 3.19.04 3.327.012 6.654.014 9.98-.082 3.04.139 6.094-.122 9.124-2.664-1.462-5.28-3.015-7.928-4.508-.069-8.835 0-17.67-.036-26.503-.008-.55.02-1.105.113-1.649Z"/><path fill="#5E5B90" d="M20 17.209c.084.05.25.157.334.21.238.51.463 1.03.75 1.515 1.761 2.965 3.462 5.967 5.214 8.94.634 1.07 1.202 2.186 1.938 3.193a7.019 7.019 0 0 0-.192 1.847c.055 2.66-.04 5.322.061 7.981-.331.732-.755 1.416-1.15 2.115-1.96 3.353-3.915 6.709-5.866 10.067-.274.475-.5.976-.747 1.467-.08.066-.243.194-.322.258-.04-12.53-.002-25.063-.02-37.593Z"/><path fill="#438FC8" d="M20.334 17.42c.285.103.57.216.84.357 7.9 4.534 15.797 9.071 23.71 13.582 2.65 1.493 5.265 3.047 7.93 4.509.057.033.172.095.227.126 7.358 4.321 14.808 8.494 22.195 12.764.745.469 1.602.782 2.233 1.414-4.815.124-9.636.007-14.452.058-.61-.016-1.272.084-1.816-.261-2.721-1.555-5.436-3.124-8.165-4.666-2.715-1.555-5.41-3.145-8.156-4.643l-.126-.073c-2.7-1.609-5.454-3.12-8.162-4.712-2.78-1.615-5.592-3.17-8.355-4.808-.736-1.007-1.304-2.122-1.938-3.192-1.752-2.973-3.453-5.975-5.213-8.94-.288-.486-.513-1.005-.752-1.516Z"/><path fill="#C73248" d="m77.442 21.576.128-.015.183.205c-7.537 4.328-15.077 8.651-22.621 12.968-.718.386-1.405.822-2.093 1.259-.055-.031-.17-.093-.227-.126.26-3.031.04-6.084.122-9.124 2.865-1.707 5.843-3.232 8.633-5.056 4.24.008 8.476 0 12.716.004 1.053.013 2.114.053 3.159-.115Z"/><path fill="#7D4A8D" d="M36.59 35.874c2.71 1.593 5.464 3.104 8.163 4.713-.488.384-1.027.693-1.57.99-7.343 4.221-14.706 8.41-22.045 12.64-.254.13-.524.23-.796.327.248-.49.473-.992.747-1.467 1.95-3.358 3.906-6.713 5.865-10.067.396-.698.82-1.383 1.151-2.114 2.463-1.26 4.803-2.746 7.23-4.067.471-.245.891-.572 1.256-.955Z"/><path fill="#81AF44" d="M44.88 40.66c2.745 1.497 5.44 3.088 8.155 4.643-.04 3.252-.066 6.506.014 9.758-2.786 4.537-5.33 9.22-8.097 13.771a6.949 6.949 0 0 1-.13-1.02c.002-8.689.004-17.377-.002-26.064.004-.364.028-.729.06-1.089Z"/><path fill="#337243" d="M59.34 51.557c.972-.48 1.852-1.355 3.011-1.277 3.904.017 7.808.002 11.711.008 1.118.01 2.24-.055 3.356.065-.502.428-1.083.742-1.657 1.051-8.335 4.767-16.661 9.541-24.99 14.318-1.984 1.071-3.864 2.346-5.918 3.278l.1-.168c2.765-4.55 5.31-9.234 8.096-13.772 2.18-1.005 4.18-2.36 6.291-3.503Z"/></svg>