<svg xmlns="http://www.w3.org/2000/svg" width="98" height="72" fill="none" viewBox="0 0 98 72"><path fill="#8B3FFD" fill-rule="evenodd" d="M33.873 36.564C33.873 22.487 45.199 11 59.436 11 73.513 11 85 22.487 85 36.564c0 14.076-11.487 25.563-25.564 25.563-14.076 0-25.563-11.325-25.563-25.563Zm16.018 0c0 5.177 4.368 9.546 9.545 9.546 5.178 0 9.385-4.369 9.546-9.546 0-5.178-4.368-9.546-9.546-9.546-5.177 0-9.545 4.368-9.545 9.546Z" clip-rule="evenodd"/><path fill="#8B3FFD" d="M33.71 55.655V18.442H13l11.65 37.213h9.06Z"/></svg>