<svg xmlns="http://www.w3.org/2000/svg" width="98" height="72" fill="none" viewBox="0 0 98 72"><g clip-path="url(#a)"><path fill="#13DC20" d="M22.81 14.231c1.986-.289 4.002-.231 5.988-.231h43.23c2.16 0 4.322.144 6.425.665 6.076 1.503 11.363 5.754 14.138 11.305 2.015 3.933 2.687 8.501 2.015 12.838-.7 4.858-3.213 9.397-6.864 12.665-3.943 3.556-9.23 5.609-14.575 5.609-15.569.029-31.138 0-46.706 0-2.658.029-5.345-.318-7.857-1.214-5.316-1.793-9.844-5.754-12.327-10.727-2.044-4.02-2.745-8.761-1.957-13.243.935-5.378 4.031-10.351 8.442-13.59 2.92-2.168 6.426-3.614 10.048-4.077Z"/><mask id="b" width="91" height="45" x="4" y="13" maskUnits="userSpaceOnUse" style="mask-type:alpha"><path fill="#219F38" d="M22.81 14.231c1.986-.289 4.002-.231 5.988-.231h43.23c2.16 0 4.322.144 6.425.665 6.076 1.503 11.363 5.754 14.138 11.305 2.015 3.933 2.687 8.501 2.015 12.838-.7 4.858-3.213 9.397-6.864 12.665-3.943 3.556-9.23 5.609-14.575 5.609-15.569.029-31.138 0-46.706 0-2.658.029-5.345-.318-7.857-1.214-5.316-1.793-9.844-5.754-12.327-10.727-2.044-4.02-2.745-8.761-1.957-13.243.935-5.378 4.031-10.351 8.442-13.59 2.92-2.168 6.426-3.614 10.048-4.077Z"/></mask><g mask="url(#b)"><path fill="url(#c)" d="M49.89 79.876c25.093 0 45.434-20.342 45.434-45.435 0-25.093-20.341-45.435-45.434-45.435-25.093 0-45.435 20.342-45.435 45.435 0 25.093 20.342 45.435 45.434 45.435Z"/><path fill="url(#d)" d="M49.435 78.907c25.093 0 45.435-20.342 45.435-45.435 0-25.093-20.342-45.435-45.435-45.435C24.342-11.963 4 8.38 4 33.472c0 25.093 20.342 45.435 45.435 45.435Z"/><path fill="url(#e)" d="M49.435 78.907c25.093 0 45.435-20.342 45.435-45.435 0-25.093-20.342-45.435-45.435-45.435C24.342-11.963 4 8.38 4 33.472c0 25.093 20.342 45.435 45.435 45.435Z"/></g><path fill="#fff" d="M62.3 37.94c1.198-.346 2.483-.202 3.74-.23.408 2.052-2.133 3.209-3.798 2.457-.906-.405-.906-1.909.058-2.227Zm-13.29-8.356c1.724.058 3.505-.231 5.141.376 1.344.492 1.577 2.198 1.168 3.383-.292.983-1.285 1.532-2.22 1.706-1.343.202-2.716.058-4.089.116v-5.58Zm20.885 1.88c1.519 3.73 3.096 7.46 4.673 11.16-.321.694-.555 1.649-1.373 1.909-.642.231-1.256-.145-1.81-.434.029.81.029 1.62 0 2.429.934.492 2.102.607 3.096.231 1.11-.55 1.635-1.735 2.074-2.804 1.49-4.164 2.979-8.328 4.498-12.491h-2.746c-.876 2.486-1.577 5.06-2.541 7.488-1.023-2.486-1.986-5.002-3.009-7.488h-2.862Zm-10.077.78c0 1.07 0 2.169-.03 3.239 1.11-1.648 3.33-2.313 5.2-1.764.993.318.993 1.475 1.051 2.342-1.519 0-3.038-.058-4.527.202-1.14.174-2.279.983-2.454 2.169-.263 1.388.059 3.094 1.402 3.817 1.928 1.012 4.761.404 5.696-1.649v1.938h2.453c-.029-2.66.059-5.35-.058-8.01-.03-1.503-1.227-2.775-2.687-3.035-2.016-.405-4.265-.376-6.046.751Zm-25.004-4.077c-3.125 2.314-6.25 4.598-9.376 6.91-1.49-.953-3.008-1.878-4.469-2.833v3.441c1.52.896 2.98 1.85 4.47 2.776 3.621-2.631 7.214-5.32 10.807-7.98-.438-.781-.906-1.59-1.432-2.314Zm11.392-1.156c0 5.176.03 10.322 0 15.498h2.746c.029-1.59.029-3.21.029-4.8 2.424-.029 5.082.202 7.244-1.157 2.132-1.358 2.541-4.337 1.694-6.563-.672-1.677-2.483-2.515-4.177-2.747-2.483-.347-4.995-.202-7.536-.231Zm-32.568 8.096c-.175 4.395 2.424 8.732 6.338 10.756 2.016 1.185 4.44 1.561 6.748 1.33 4.001-.405 7.652-3.065 9.346-6.68 1.169-2.226 1.373-4.799 1.023-7.228-.847.636-1.694 1.244-2.541 1.909.058 3.238-1.695 6.447-4.528 8.096-2.249 1.33-5.111 1.619-7.594.694-3.3-1.128-5.725-4.309-5.988-7.72-.41-3.73 1.782-7.518 5.228-9.08 2.834-1.359 6.339-1.04 8.938.723.789-.578 1.548-1.156 2.308-1.706-2.19-1.619-4.82-2.66-7.595-2.602-6.192-.116-11.654 5.407-11.683 11.508Z"/></g><defs><radialGradient id="c" cx="0" cy="0" r="1" gradientTransform="rotate(135 49.94 14.244) scale(88.6716)" gradientUnits="userSpaceOnUse"><stop stop-color="#3BDFB4"/><stop offset="1" stop-color="#3BDFB4" stop-opacity="0"/></radialGradient><radialGradient id="d" cx="0" cy="0" r="1" gradientTransform="rotate(135 41.077 17.326) scale(88.3503)" gradientUnits="userSpaceOnUse"><stop stop-color="#19CCDC"/><stop offset=".223" stop-color="#19CCDC" stop-opacity=".75"/><stop offset="1" stop-color="#19CCDC" stop-opacity="0"/></radialGradient><radialGradient id="e" cx="0" cy="0" r="1" gradientTransform="rotate(-45 97.248 34.625) scale(64.2548)" gradientUnits="userSpaceOnUse"><stop stop-color="#F5ED01"/><stop offset=".332" stop-color="#F5ED01" stop-opacity=".8"/><stop offset="1" stop-color="#F5ED01" stop-opacity="0"/></radialGradient><clipPath id="a"><path fill="#fff" d="M4 14h90.87v43.111H4z"/></clipPath></defs></svg>