<svg xmlns="http://www.w3.org/2000/svg" width="98" height="72" fill="none" viewBox="0 0 98 72"><path fill="#8C2E78" d="M80 62H18a6.017 6.017 0 0 1-6-6V16a6.017 6.017 0 0 1 6-6h62a6.017 6.017 0 0 1 6 6v40a6.017 6.017 0 0 1-6 6Z"/><path fill="#B53C9B" d="M79.1 42.7h-14a2.006 2.006 0 0 1-2-2v-10a2.005 2.005 0 0 1 2-2h14a2.006 2.006 0 0 1 2 2v10a2.006 2.006 0 0 1-2 2Z"/><g fill="#000" opacity=".2"><path d="M22.1 46.4v-4.8L21 42.7l-.8-.8 2.1-2.1h1.2v6.7h-1.4v-.1ZM24.6 46.4v-1.1c2.7-2 3.5-2.7 3.5-3.5 0-.6-.5-.9-1.1-.9a2.341 2.341 0 0 0-1.8.8l-.8-.9a3.143 3.143 0 0 1 2.6-1.1 2.227 2.227 0 0 1 2.5 2.1c0 1.1-.9 2.1-2.7 3.4h2.7v1.2h-4.9ZM30.3 45.5l.7-1c.477.485 1.12.77 1.8.8.8 0 1.3-.3 1.3-.8s-.4-.8-1.3-.8H32v-1.3h.8c.7 0 1.2-.2 1.2-.7 0-.5-.5-.8-1.2-.8a2.343 2.343 0 0 0-1.7.7l-.7-.9a3.273 3.273 0 0 1 2.5-1.1c1.6 0 2.5.7 2.5 1.8a1.612 1.612 0 0 1-1.5 1.5 1.719 1.719 0 0 1 1.6 1.6c0 1.1-1 2-2.6 2a3.298 3.298 0 0 1-2.6-1ZM39.4 46.4V45h-3.2v-1.1l2.6-4.2h2v4h.9V45h-.9v1.4h-1.4Zm0-5.4-1.8 2.8h1.8V41ZM45 45.5l.8-1a2.41 2.41 0 0 0 1.8.7c.8 0 1.2-.4 1.2-1s-.4-1-1.2-1a2.39 2.39 0 0 0-1.4.5l-1-.3v-3.8h4.6V41h-3.2v1.6c.41-.375.944-.589 1.5-.6a2.076 2.076 0 0 1 2.1 2.2c0 1.4-1.1 2.3-2.7 2.3a3.04 3.04 0 0 1-2.5-1ZM51 43.1c0-2 1.1-3.4 3.1-3.4a3.22 3.22 0 0 1 2 .7l-.6 1.1a1.9 1.9 0 0 0-1.3-.5 1.739 1.739 0 0 0-1.7 1.9v.1a2.374 2.374 0 0 1 1.7-.9 2.178 2.178 0 0 1 2.3 2.2 2.317 2.317 0 0 1-2.5 2.3c-2.2-.1-3-1.6-3-3.5Zm3.9 1.2c0-.7-.6-1-1.2-1a1.611 1.611 0 0 0-1.3.6c.1.6.4 1.3 1.3 1.3a.952.952 0 0 0 1.2-.9ZM57.9 46.4l2.4-5.4h-3.4v-1.2h5v1l-2.5 5.7h-1.5v-.1ZM62.5 44.7a1.902 1.902 0 0 1 1.4-1.7c-.7-.3-1.3-.7-1.3-1.6 0-1.3 1.3-1.8 2.6-1.8 1.2 0 2.6.5 2.6 1.8a1.81 1.81 0 0 1-1.3 1.6 1.901 1.901 0 0 1 1.4 1.7c0 1.2-1.3 1.8-2.7 1.8-1.4 0-2.7-.6-2.7-1.8Zm3.9-.2c0-.6-.8-.8-1.2-.9-.4.1-1.2.3-1.2.9 0 .5.5.8 1.2.8s1.2-.3 1.2-.8Zm-.1-2.9c0-.5-.5-.8-1.1-.8-.7 0-1.1.3-1.1.8s.7.7 1.1.8c.4 0 1.1-.3 1.1-.8Z" opacity=".2"/></g><path fill="#fff" d="M22.1 45.4v-4.8L21 41.7l-.8-.8 2.1-2.1h1.2v6.7h-1.4v-.1ZM24.6 45.4v-1.1c2.7-2 3.5-2.7 3.5-3.5 0-.6-.5-.9-1.1-.9a2.343 2.343 0 0 0-1.8.8l-.8-.9a3.143 3.143 0 0 1 2.6-1.1 2.226 2.226 0 0 1 2.5 2.1c0 1.1-.9 2.1-2.7 3.4h2.7v1.2h-4.9ZM30.3 44.5l.7-1c.477.485 1.12.77 1.8.8.8 0 1.3-.3 1.3-.8s-.4-.8-1.3-.8H32v-1.3h.8c.7 0 1.2-.2 1.2-.7 0-.5-.5-.8-1.2-.8a2.343 2.343 0 0 0-1.7.7l-.7-.9a3.273 3.273 0 0 1 2.5-1.1c1.6 0 2.5.7 2.5 1.8a1.612 1.612 0 0 1-1.5 1.5 1.719 1.719 0 0 1 1.6 1.6c0 1.1-1 2-2.6 2a3.298 3.298 0 0 1-2.6-1ZM39.4 45.4V44h-3.2v-1.1l2.6-4.2h2v4h.9V44h-.9v1.4h-1.4Zm0-5.4-1.8 2.8h1.8V40ZM45 44.5l.8-1a2.41 2.41 0 0 0 1.8.7c.8 0 1.2-.4 1.2-1s-.4-1-1.2-1a2.39 2.39 0 0 0-1.4.5l-1-.3v-3.8h4.6V40h-3.2v1.6c.41-.375.944-.589 1.5-.6a2.076 2.076 0 0 1 2.1 2.2c0 1.4-1.1 2.3-2.7 2.3a3.04 3.04 0 0 1-2.5-1ZM51 42.1c0-2 1.1-3.4 3.1-3.4a3.22 3.22 0 0 1 2 .7l-.6 1.1a1.9 1.9 0 0 0-1.3-.5 1.739 1.739 0 0 0-1.7 1.9v.1a2.374 2.374 0 0 1 1.7-.9 2.178 2.178 0 0 1 2.3 2.2 2.317 2.317 0 0 1-2.5 2.3c-2.2-.1-3-1.6-3-3.5Zm3.9 1.2c0-.7-.6-1-1.2-1a1.611 1.611 0 0 0-1.3.6c.1.6.4 1.3 1.3 1.3a.952.952 0 0 0 1.2-.9ZM57.9 45.4l2.4-5.4h-3.4v-1.2h5v1l-2.5 5.7h-1.5v-.1ZM62.5 43.7a1.902 1.902 0 0 1 1.4-1.7c-.7-.3-1.3-.7-1.3-1.6 0-1.3 1.3-1.8 2.6-1.8 1.2 0 2.6.5 2.6 1.8a1.81 1.81 0 0 1-1.3 1.6 1.901 1.901 0 0 1 1.4 1.7c0 1.2-1.3 1.8-2.7 1.8-1.4 0-2.7-.6-2.7-1.8Zm3.9-.2c0-.6-.8-.8-1.2-.9-.4.1-1.2.3-1.2.9 0 .5.5.8 1.2.8s1.2-.3 1.2-.8Zm-.1-2.9c0-.5-.5-.8-1.1-.8-.7 0-1.1.3-1.1.8s.7.7 1.1.8c.4 0 1.1-.3 1.1-.8Z"/></svg>