<?xml version="1.0" standalone="no"?>
<!DOCTYPE svg PUBLIC "-//W3C//DTD SVG 20010904//EN"
 "http://www.w3.org/TR/2001/REC-SVG-20010904/DTD/svg10.dtd">
<svg version="1.0" xmlns:xlink="http://www.w3.org/1999/xlink" xmlns="http://www.w3.org/2000/svg"
 width="960.000000pt" height="960.000000pt" viewBox="0 0 960.000000 960.000000"
 preserveAspectRatio="xMidYMid meet">
<metadata>
Created by potrace 1.14, written by Peter Selinger 2001-2017
</metadata>
<g transform="translate(0.000000,960.000000) scale(0.100000,-0.100000)"
fill="#000000" stroke="none">
<path d="M4400 9591 c-8 -4 -71 -13 -139 -20 -434 -43 -924 -172 -1361 -358
-199 -85 -638 -318 -648 -345 -2 -4 -7 -8 -12 -8 -12 0 -134 -81 -138 -92 -2
-4 -10 -8 -18 -8 -8 0 -14 -4 -14 -10 0 -5 -7 -10 -15 -10 -8 0 -15 -4 -15
-10 0 -5 -5 -10 -11 -10 -6 0 -16 -6 -24 -12 -7 -7 -58 -46 -114 -87 -56 -41
-101 -78 -101 -83 0 -4 -5 -8 -11 -8 -7 0 -22 -11 -35 -25 -13 -14 -26 -25
-30 -25 -4 0 -19 -12 -35 -27 -15 -16 -56 -53 -90 -83 -103 -92 -409 -402
-409 -415 0 -2 -12 -16 -27 -32 -40 -42 -80 -90 -127 -153 -22 -30 -43 -57
-46 -60 -15 -14 -70 -90 -70 -95 0 -4 -6 -13 -12 -20 -28 -32 -38 -45 -70 -97
-18 -29 -36 -54 -40 -56 -4 -2 -8 -8 -8 -13 0 -5 -8 -18 -18 -29 -9 -11 -26
-36 -37 -54 -292 -491 -462 -893 -580 -1371 -56 -227 -89 -408 -110 -605 -9
-85 -21 -163 -26 -172 -13 -25 -12 -785 1 -793 6 -3 10 -23 10 -44 0 -21 9
-108 21 -192 72 -545 229 -1054 475 -1540 78 -155 235 -427 253 -439 5 -3 11
-14 15 -25 3 -11 17 -33 31 -50 15 -16 36 -45 48 -65 12 -19 27 -41 34 -48 7
-7 13 -17 13 -21 0 -4 8 -16 17 -27 10 -10 31 -37 48 -59 43 -58 42 -58 67
-88 13 -15 34 -41 48 -58 26 -33 36 -45 123 -143 73 -83 345 -356 354 -356 5
0 24 -18 43 -40 19 -22 39 -40 43 -40 4 0 20 -12 36 -28 15 -15 45 -40 66 -57
21 -16 43 -35 49 -41 6 -5 19 -13 29 -17 9 -3 17 -11 17 -16 0 -5 15 -19 33
-30 18 -11 46 -31 62 -45 17 -14 34 -26 38 -26 4 0 20 -11 35 -25 15 -14 32
-25 39 -25 7 0 13 -4 13 -9 0 -5 30 -28 67 -52 38 -23 91 -57 118 -75 65 -41
149 -90 297 -170 392 -214 913 -395 1378 -478 162 -29 363 -56 415 -56 19 0
37 -4 40 -10 7 -12 835 -14 835 -2 0 4 57 14 128 21 616 60 1307 289 1887 626
28 16 52 32 55 35 3 3 22 14 43 25 21 11 47 28 57 37 11 10 22 18 25 18 6 0
146 94 172 115 7 5 19 16 27 23 8 6 19 12 23 12 4 0 22 14 40 30 18 17 36 30
42 30 5 0 11 4 13 8 2 4 29 28 61 52 31 25 57 48 57 52 0 5 5 8 10 8 6 0 22
10 35 22 13 13 45 41 71 63 37 32 168 155 228 214 92 92 252 265 286 311 14
18 37 47 53 64 41 47 47 55 47 62 0 4 8 14 18 23 10 9 29 32 42 51 13 19 30
41 37 48 7 7 13 17 13 21 0 4 8 16 18 27 25 28 102 143 102 153 0 5 4 11 9 13
23 8 221 353 312 544 202 419 342 871 414 1328 13 85 27 193 31 240 4 47 11
86 15 86 13 0 12 847 -1 855 -5 3 -10 21 -10 40 0 18 -7 89 -16 157 -63 497
-213 1003 -433 1463 -62 129 -195 373 -210 385 -4 3 -18 26 -31 53 -14 26 -28
47 -32 47 -5 0 -8 7 -8 15 0 8 -3 15 -8 15 -4 0 -13 13 -20 28 -6 16 -21 38
-32 50 -11 12 -20 26 -20 32 0 5 -4 10 -10 10 -5 0 -10 6 -10 14 0 7 -11 25
-24 39 -14 15 -33 40 -42 57 -10 16 -22 30 -26 30 -4 0 -8 4 -8 10 0 10 -20
37 -52 72 -10 10 -18 21 -18 26 0 4 -8 15 -17 23 -10 9 -29 31 -43 49 -38 50
-82 100 -117 135 -18 18 -33 35 -33 39 0 9 -346 356 -355 356 -4 0 -24 17 -44
38 -20 20 -52 48 -70 62 -18 14 -43 35 -54 48 -11 12 -25 22 -31 22 -6 0 -27
16 -46 35 -19 19 -38 35 -42 35 -4 0 -17 8 -27 18 -29 26 -43 37 -76 58 -17
10 -35 23 -42 29 -7 5 -20 16 -29 24 -30 25 -288 187 -384 240 -52 29 -106 60
-120 68 -14 8 -79 41 -145 73 -480 232 -1020 390 -1520 445 -82 9 -164 21
-181 26 -37 11 -783 12 -804 0z m2633 -1680 c27 -9 43 -23 57 -50 17 -34 19
-61 18 -314 0 -281 -7 -350 -37 -367 -36 -19 -279 -23 -1336 -24 -1090 -2
-1100 -2 -1140 19 -61 31 -64 49 -64 360 0 336 4 355 70 378 53 18 2379 17
2432 -2z m-2680 -189 c50 -16 52 -19 55 -56 2 -21 0 -42 -5 -47 -18 -18 -125
-34 -283 -43 -97 -5 -140 -20 -170 -59 -72 -91 -81 -282 -80 -1547 1 -459 0
-1116 -1 -1460 -9 -1947 -2 -2287 50 -2404 33 -75 119 -133 233 -158 38 -8
433 -12 1433 -14 759 -1 1486 -2 1615 -3 248 0 329 5 346 22 4 4 17 7 29 7 37
0 130 93 140 140 1 3 7 25 14 50 13 45 16 60 27 155 3 28 7 705 10 1505 2 800
6 1545 8 1655 8 494 5 1287 -8 1615 -11 283 -16 310 -79 398 -64 89 -172 122
-404 126 -24 0 -43 1 -44 1 0 0 -3 27 -5 60 l-6 60 114 -1 c250 -2 363 -45
440 -168 99 -157 103 -177 100 -456 -5 -573 -2 -1197 14 -2275 9 -642 10
-1872 1 -2150 -15 -479 -31 -585 -99 -662 -90 -102 -109 -120 -135 -133 -15
-8 -36 -21 -47 -30 -10 -8 -20 -14 -22 -12 -2 2 -30 -2 -62 -9 -43 -9 -351
-13 -1282 -15 -674 -1 -1310 -5 -1415 -8 -397 -14 -583 -7 -740 28 -92 20
-196 85 -244 151 -34 47 -78 155 -85 207 -3 18 -8 53 -13 78 -9 50 -9 398 0
472 4 31 2 48 -6 51 -7 2 -60 3 -119 3 -60 -1 -108 1 -108 4 0 3 -44 6 -98 6
-53 1 -176 5 -272 9 -213 10 -338 11 -450 2 -137 -11 -198 -31 -259 -89 -32
-30 -33 -34 -28 -82 11 -93 -35 -157 -125 -171 -116 -18 -210 -22 -515 -19
-388 3 -443 7 -495 35 -50 26 -63 66 -73 214 -9 133 -20 188 -49 238 -39 66
-42 102 -50 462 -3 138 -8 372 -12 520 -3 149 -7 288 -9 310 -2 22 -6 81 -10
130 -5 79 -33 318 -38 334 -1 3 10 22 24 41 15 19 34 58 43 85 36 113 106 173
361 310 91 48 193 106 227 129 61 39 188 160 188 177 0 5 8 18 17 29 10 11 17
24 16 28 -1 4 4 14 11 22 7 8 52 83 99 165 46 83 93 164 103 182 11 18 68 117
128 220 158 274 186 315 243 345 45 24 141 51 230 63 21 3 54 8 73 11 55 8
190 16 520 29 239 9 405 29 418 49 4 6 7 173 7 371 1 461 7 489 144 625 88 86
175 135 279 154 77 14 113 12 185 -12z m3093 -1242 c-4 -72 -11 -140 -17 -153
-6 -12 -40 -44 -75 -72 -36 -27 -100 -88 -142 -134 -42 -46 -82 -89 -87 -95
-44 -47 -160 -186 -173 -208 -9 -16 -19 -28 -23 -28 -18 0 -141 92 -194 145
-56 56 -110 143 -121 197 -11 56 -15 146 -8 175 l9 33 26 -23 c15 -12 47 -39
72 -60 24 -20 64 -62 87 -93 41 -53 111 -104 141 -104 8 0 23 14 33 30 50 85
232 297 376 437 46 46 89 83 93 83 5 0 6 -58 3 -130z m-222 49 c9 -9 -82 -46
-134 -55 -39 -6 -296 -6 -483 0 -32 1 -62 -1 -68 -4 -15 -10 -20 -103 -23
-410 -2 -304 1 -326 47 -352 16 -10 89 -13 277 -13 416 -1 485 17 464 119 -13
66 -13 184 2 232 14 47 29 72 38 63 11 -10 19 -103 19 -204 -1 -155 -11 -207
-47 -240 -35 -32 -66 -35 -416 -38 -298 -2 -306 -1 -350 20 -84 42 -85 46 -83
378 1 160 2 332 2 383 1 91 1 93 29 103 15 6 59 13 97 16 39 3 71 6 72 7 6 5
552 0 557 -5z m-1128 -78 c7 -1 10 -35 9 -103 -1 -57 -3 -106 -3 -109 -2 -5
-1675 -1 -1777 4 l-40 2 -3 102 -3 102 73 3 c70 3 1721 2 1744 -1z m5 -529 c1
-4 3 -51 5 -104 l3 -98 -914 0 -915 0 0 103 0 102 910 2 c501 2 911 -1 911 -5z
m-4616 -53 c252 -19 270 -20 274 -25 10 -10 22 -110 23 -189 1 -130 -21 -208
-69 -249 -15 -13 -39 -33 -52 -45 -13 -12 -32 -21 -42 -21 -51 0 -474 144
-544 185 -97 56 -88 173 24 313 l42 53 107 -6 c59 -3 166 -10 237 -16z m5956
-796 c1 -10 3 -34 4 -53 3 -37 7 -164 6 -190 -1 -9 -14 -23 -30 -33 -35 -20
-102 -85 -152 -147 -89 -109 -112 -134 -195 -212 -48 -46 -106 -102 -128 -125
-22 -24 -44 -43 -47 -43 -4 0 -40 39 -80 88 -83 99 -142 157 -180 177 -32 17
-35 30 -38 173 -1 77 1 112 9 112 22 0 81 -54 147 -134 68 -82 122 -136 134
-136 4 0 26 17 50 38 23 20 67 59 98 87 166 146 303 299 345 383 18 35 55 45
57 15z m-227 -72 c-10 -16 -28 -32 -41 -36 -13 -3 -159 -6 -323 -6 l-300 0 0
-22 c0 -13 -4 -27 -10 -33 -17 -17 -24 -116 -23 -339 2 -216 9 -360 19 -377 3
-4 171 -8 374 -8 292 0 369 3 373 13 3 7 6 69 7 137 2 159 4 171 30 225 25 53
45 54 43 4 -1 -19 -5 -113 -9 -209 -4 -96 -7 -182 -8 -192 -1 -31 -185 -53
-436 -52 -193 0 -409 20 -440 39 -7 4 -10 145 -9 411 l1 404 46 28 c52 30 99
34 525 40 l199 3 -18 -30z m-1117 -170 c0 -93 -1 -99 -21 -103 -12 -1 -397 -3
-856 -3 -896 0 -923 2 -933 49 -3 11 -6 51 -6 89 l-2 67 909 0 910 0 -1 -99z
m-46 -415 l56 -7 -1 -99 c-1 -54 -4 -102 -9 -106 -7 -7 -1661 -13 -1764 -6
l-53 4 0 109 0 109 383 2 c635 5 1329 2 1388 -6z m1398 -960 l0 -114 -54 -81
c-29 -44 -55 -84 -57 -88 -1 -4 -21 -21 -43 -38 -43 -32 -115 -99 -289 -267
-61 -60 -115 -108 -119 -108 -11 0 -35 24 -114 120 -72 88 -115 130 -151 149
-18 10 -21 21 -22 123 -3 144 -2 149 5 157 4 3 30 -19 58 -50 29 -31 76 -81
105 -113 47 -50 133 -116 153 -116 4 0 33 36 64 79 32 44 120 140 197 213 77
73 165 159 196 190 31 32 60 58 64 58 4 0 7 -51 7 -114z m-236 39 c68 -28 -79
-60 -273 -58 -47 0 -141 1 -210 3 -165 3 -157 4 -175 -30 -36 -69 -44 -156
-42 -447 2 -189 6 -286 13 -293 15 -15 595 -21 682 -8 82 13 85 20 86 213 1
131 4 154 21 183 10 17 22 32 25 32 16 0 29 -104 25 -200 -3 -89 -9 -145 -15
-145 -1 0 -3 -8 -5 -17 -6 -33 -48 -107 -64 -114 -58 -23 -589 -23 -715 1 -34
7 -86 32 -86 43 -1 4 -5 27 -10 52 -21 101 -30 410 -17 558 10 112 38 207 66
217 7 3 115 8 240 11 124 4 227 8 229 9 7 6 208 -3 225 -10z m-1112 -160 c-2
-50 -4 -99 -5 -110 -1 -20 -8 -20 -906 -20 l-905 0 0 105 0 105 70 5 c39 3
448 5 910 5 l840 0 -4 -90z m-5 -433 c7 -1 11 -39 10 -109 l-1 -108 -670 2
c-368 0 -779 2 -912 2 l-242 1 0 104 c-1 90 2 105 16 108 16 3 1778 3 1799 0z"/>
<path d="M3698 6415 c-3 -2 -108 -7 -428 -20 -69 -3 -154 -8 -189 -11 -36 -3
-90 -7 -120 -9 -215 -13 -396 -43 -449 -75 -49 -30 -114 -128 -213 -320 -24
-47 -48 -88 -52 -91 -5 -3 -8 -9 -7 -13 0 -4 -18 -46 -40 -94 -23 -48 -42 -91
-43 -97 -1 -5 -4 -12 -7 -15 -7 -6 -61 -141 -62 -155 -1 -5 -7 -24 -15 -42
-26 -64 -22 -68 80 -92 190 -44 447 -84 672 -106 132 -13 163 -16 205 -21 25
-2 79 -7 120 -9 41 -3 100 -7 130 -10 30 -2 89 -7 130 -9 41 -3 120 -8 175
-12 94 -6 137 -8 160 -5 9 1 10 1189 1 1198 -5 5 -44 12 -48 8z"/>
<path d="M1452 4782 c-13 -2 -41 -22 -63 -45 -34 -34 -40 -47 -38 -76 2 -20 9
-48 16 -63 7 -16 11 -28 8 -28 -3 0 2 -11 11 -25 9 -14 13 -25 10 -25 -11 0
78 -117 133 -175 29 -30 54 -55 57 -55 3 0 11 -6 18 -12 64 -64 245 -161 371
-201 232 -72 422 -56 528 45 27 26 46 48 41 48 -5 0 -4 4 2 8 16 10 80 118 89
152 1 3 6 16 12 30 26 62 25 68 -5 84 -16 8 -103 29 -193 46 -313 60 -526 121
-789 228 -156 63 -177 69 -208 64z"/>
</g>
</svg>
